<svg width="11548" height="1457" viewBox="0 0 11548 1457" fill="none" xmlns="http://www.w3.org/2000/svg">
<path d="M2258.8 673V851.8C2258.8 953.4 2233.2 1034.2 2182 1094.2C2131.6 1153.4 2058.8 1183 1963.6 1183C1868.4 1183 1795.2 1153.4 1744 1094.2C1693.6 1034.2 1668.4 953.4 1668.4 851.8V673C1668.4 572.2 1693.6 492.2 1744 433C1795.2 373 1868.4 343 1963.6 343C2058.8 343 2131.6 373 2182 433C2233.2 492.2 2258.8 572.2 2258.8 673ZM2150.8 673C2150.8 598.6 2134.8 541.4 2102.8 501.4C2071.6 460.6 2025.2 440.2 1963.6 440.2C1902.8 440.2 1856.4 460.6 1824.4 501.4C1792.4 541.4 1776.4 598.6 1776.4 673V851.8C1776.4 927 1792.4 985 1824.4 1025.8C1856.4 1066.6 1902.8 1087 1963.6 1087C2025.2 1087 2071.6 1066.6 2102.8 1025.8C2134.8 985 2150.8 927 2150.8 851.8V673ZM2696.15 1183C2651.35 1183 2604.95 1173.8 2556.95 1155.4V1426.6H2458.55V577H2552.15V661C2588.95 625.8 2622.55 601 2652.95 586.6C2683.35 572.2 2714.55 565 2746.55 565C2809.75 565 2858.15 589 2891.75 637C2926.15 685 2943.35 752.6 2943.35 839.8V909.4C2943.35 992.6 2922.15 1059 2879.75 1108.6C2838.15 1158.2 2776.95 1183 2696.15 1183ZM2722.55 657.4C2699.35 657.4 2675.35 663.4 2650.55 675.4C2625.75 687.4 2594.55 711.8 2556.95 748.6V1065.4C2580.15 1075.8 2602.55 1083.4 2624.15 1088.2C2645.75 1092.2 2666.95 1094.2 2687.75 1094.2C2742.15 1094.2 2781.35 1077.8 2805.35 1045C2829.35 1011.4 2841.35 966.2 2841.35 909.4V839.8C2841.35 777.4 2831.35 731.4 2811.35 701.8C2792.15 672.2 2762.55 657.4 2722.55 657.4ZM3556.15 1136.2C3520.15 1153.8 3484.15 1165.8 3448.15 1172.2C3412.15 1179.4 3378.95 1183 3348.55 1183C3262.95 1183 3198.95 1158.6 3156.55 1109.8C3114.95 1061 3094.15 994.2 3094.15 909.4V837.4C3094.15 755 3114.95 689 3156.55 639.4C3198.95 589.8 3258.55 565 3335.35 565C3376.15 565 3413.35 573.4 3446.95 590.2C3481.35 606.2 3508.55 631 3528.55 664.6C3549.35 697.4 3559.75 739.8 3559.75 791.8C3559.75 825.4 3554.95 863.8 3545.35 907H3191.35V909.4C3191.35 970.2 3203.75 1016.2 3228.55 1047.4C3254.15 1078.6 3294.95 1094.2 3350.95 1094.2C3376.55 1094.2 3404.55 1091 3434.95 1084.6C3466.15 1078.2 3496.55 1068.2 3526.15 1054.6L3556.15 1136.2ZM3335.35 651.4C3288.95 651.4 3253.75 666.6 3229.75 697C3206.55 726.6 3193.75 768.6 3191.35 823H3460.15C3462.55 808.6 3463.75 795 3463.75 782.2C3463.75 737.4 3450.95 704.6 3425.35 683.8C3400.55 662.2 3370.55 651.4 3335.35 651.4ZM4042.04 663.4C4006.04 663.4 3970.84 669.8 3936.44 682.6C3902.84 695.4 3866.84 719.8 3828.44 755.8V1171H3730.04V577H3823.64V673C3864.44 633 3901.64 605 3935.24 589C3969.64 573 4005.24 565 4042.04 565V663.4ZM4641.06 837.4V909.4C4641.06 994.2 4619.06 1061 4575.06 1109.8C4531.86 1158.6 4469.86 1183 4389.06 1183C4309.06 1183 4247.06 1158.6 4203.06 1109.8C4159.06 1061 4137.06 994.2 4137.06 909.4V837.4C4137.06 754.2 4158.66 688.2 4201.86 639.4C4245.86 589.8 4308.26 565 4389.06 565C4469.86 565 4531.86 589.8 4575.06 639.4C4619.06 688.2 4641.06 754.2 4641.06 837.4ZM4539.06 837.4C4539.06 780.6 4526.26 736.2 4500.66 704.2C4475.06 671.4 4437.86 655 4389.06 655C4341.06 655 4303.86 671.4 4277.46 704.2C4251.86 736.2 4239.06 780.6 4239.06 837.4V909.4C4239.06 968.6 4251.86 1014.2 4277.46 1046.2C4303.86 1078.2 4341.06 1094.2 4389.06 1094.2C4437.86 1094.2 4475.06 1078.2 4500.66 1046.2C4526.26 1014.2 4539.06 968.6 4539.06 909.4V837.4ZM5105.48 657.4C5083.08 657.4 5056.68 663 5026.28 674.2C4996.68 685.4 4960.68 708.2 4918.28 742.6V1171H4819.88V577H4913.48V659.8C4955.88 623.8 4994.28 599 5028.68 585.4C5063.88 571.8 5097.48 565 5129.48 565C5184.68 565 5226.68 582.6 5255.48 617.8C5285.08 652.2 5299.88 701.4 5299.88 765.4V1171H5201.48V779.8C5201.48 698.2 5169.48 657.4 5105.48 657.4ZM5955.16 1089.4C6005.56 1089.4 6044.36 1078.6 6071.56 1057C6098.76 1034.6 6112.36 1002.2 6112.36 959.8C6112.36 924.6 6102.76 895 6083.56 871C6065.16 847 6034.76 828.6 5992.36 815.8L5895.16 787C5834.36 768.6 5789.56 741 5760.76 704.2C5731.96 666.6 5717.56 620.6 5717.56 566.2C5717.56 524.6 5725.56 487 5741.56 453.4C5758.36 419.8 5784.76 393 5820.76 373C5857.56 353 5905.56 343 5964.76 343C6000.76 343 6037.96 347.4 6076.36 356.2C6114.76 364.2 6153.56 377.4 6192.76 395.8L6159.16 485.8C6120.76 469 6085.96 457 6054.76 449.8C6024.36 441.8 5995.16 437.8 5967.16 437.8C5921.56 437.8 5885.96 447.4 5860.36 466.6C5835.56 485 5823.16 515.8 5823.16 559C5823.16 590.2 5831.56 616.6 5848.36 638.2C5865.16 659 5895.16 676.2 5938.36 689.8L6035.56 718.6C6157.16 754.6 6217.96 832.2 6217.96 951.4C6217.96 1020.2 6197.16 1076.2 6155.56 1119.4C6113.96 1161.8 6047.16 1183 5955.16 1183C5917.56 1183 5877.56 1178.6 5835.16 1169.8C5793.56 1160.2 5750.36 1145.4 5705.56 1125.4L5737.96 1036.6C5780.36 1055.8 5818.36 1069.4 5851.96 1077.4C5886.36 1085.4 5920.76 1089.4 5955.16 1089.4ZM6844.19 837.4V909.4C6844.19 994.2 6822.19 1061 6778.19 1109.8C6734.99 1158.6 6672.99 1183 6592.19 1183C6512.19 1183 6450.19 1158.6 6406.19 1109.8C6362.19 1061 6340.19 994.2 6340.19 909.4V837.4C6340.19 754.2 6361.79 688.2 6404.99 639.4C6448.99 589.8 6511.39 565 6592.19 565C6672.99 565 6734.99 589.8 6778.19 639.4C6822.19 688.2 6844.19 754.2 6844.19 837.4ZM6742.19 837.4C6742.19 780.6 6729.39 736.2 6703.79 704.2C6678.19 671.4 6640.99 655 6592.19 655C6544.19 655 6506.99 671.4 6480.59 704.2C6454.99 736.2 6442.19 780.6 6442.19 837.4V909.4C6442.19 968.6 6454.99 1014.2 6480.59 1046.2C6506.99 1078.2 6544.19 1094.2 6592.19 1094.2C6640.99 1094.2 6678.19 1078.2 6703.79 1046.2C6729.39 1014.2 6742.19 968.6 6742.19 909.4V837.4ZM7021.81 1027V283H7120.21V1022.2C7120.21 1043.8 7123.41 1060.2 7129.81 1071.4C7137.01 1081.8 7151.01 1087 7171.81 1087H7191.01V1177H7163.41C7110.61 1177 7073.81 1163 7053.01 1135C7032.21 1107 7021.81 1071 7021.81 1027ZM7705.41 1171V1087C7663.81 1123 7626.61 1148.2 7593.81 1162.6C7561.01 1176.2 7528.21 1183 7495.41 1183C7442.61 1183 7402.21 1165.8 7374.21 1131.4C7346.21 1096.2 7332.21 1047 7332.21 983.8V577H7430.61V969.4C7430.61 1011 7437.81 1041.8 7452.21 1061.8C7467.41 1081 7489.81 1090.6 7519.41 1090.6C7541.81 1090.6 7567.01 1085 7595.01 1073.8C7623.01 1062.6 7657.81 1040.2 7699.41 1006.6V577H7797.81V1171H7705.41ZM8336.13 1149.4C8291.33 1171.8 8243.73 1183 8193.33 1183C8150.13 1183 8116.13 1174.2 8091.33 1156.6C8067.33 1139 8050.13 1115.4 8039.73 1085.8C8030.13 1056.2 8025.33 1023.4 8025.33 987.4V663.4H7922.13V577H8025.33V411.4H8123.73V577H8318.13V663.4H8123.73V983.8C8123.73 1025.4 8130.53 1054.2 8144.13 1070.2C8158.53 1085.4 8180.53 1093 8210.13 1093C8224.53 1093 8239.33 1091.4 8254.53 1088.2C8270.53 1084.2 8287.73 1077.8 8306.13 1069L8336.13 1149.4ZM8569.98 431.8H8459.58V321.4H8569.98V431.8ZM8563.98 1171H8465.58V577H8563.98V1171ZM9246.53 837.4V909.4C9246.53 994.2 9224.53 1061 9180.53 1109.8C9137.33 1158.6 9075.33 1183 8994.53 1183C8914.53 1183 8852.53 1158.6 8808.53 1109.8C8764.53 1061 8742.53 994.2 8742.53 909.4V837.4C8742.53 754.2 8764.13 688.2 8807.33 639.4C8851.33 589.8 8913.73 565 8994.53 565C9075.33 565 9137.33 589.8 9180.53 639.4C9224.53 688.2 9246.53 754.2 9246.53 837.4ZM9144.53 837.4C9144.53 780.6 9131.73 736.2 9106.13 704.2C9080.53 671.4 9043.33 655 8994.53 655C8946.53 655 8909.33 671.4 8882.93 704.2C8857.33 736.2 8844.53 780.6 8844.53 837.4V909.4C8844.53 968.6 8857.33 1014.2 8882.93 1046.2C8909.33 1078.2 8946.53 1094.2 8994.53 1094.2C9043.33 1094.2 9080.53 1078.2 9106.13 1046.2C9131.73 1014.2 9144.53 968.6 9144.53 909.4V837.4ZM9710.95 657.4C9688.55 657.4 9662.15 663 9631.75 674.2C9602.15 685.4 9566.15 708.2 9523.75 742.6V1171H9425.35V577H9518.95V659.8C9561.35 623.8 9599.75 599 9634.15 585.4C9669.35 571.8 9702.95 565 9734.95 565C9790.15 565 9832.15 582.6 9860.95 617.8C9890.55 652.2 9905.35 701.4 9905.35 765.4V1171H9806.95V779.8C9806.95 698.2 9774.95 657.4 9710.95 657.4ZM10256.1 1095.4C10336.1 1095.4 10376.1 1068.2 10376.1 1013.8C10376.1 990.6 10368.9 972.2 10354.5 958.6C10340.1 945 10313.7 933.4 10275.3 923.8L10209.3 907C10160.5 895 10124.1 874.2 10100.1 844.6C10076.1 814.2 10064.1 778.2 10064.1 736.6C10064.1 706.2 10070.9 678.2 10084.5 652.6C10098.1 626.2 10119.7 605 10149.3 589C10178.9 573 10217.3 565 10264.5 565C10294.9 565 10325.7 568.6 10356.9 575.8C10388.9 582.2 10421.3 593.4 10454.1 609.4L10422.9 692.2C10364.5 665.8 10311.7 652.6 10264.5 652.6C10194.9 652.6 10160.1 678.6 10160.1 730.6C10160.1 750.6 10166.5 767.8 10179.3 782.2C10192.1 796.6 10216.1 808.2 10251.3 817L10317.3 833.8C10370.1 846.6 10408.9 867.4 10433.7 896.2C10458.5 925 10470.9 962.2 10470.9 1007.8C10470.9 1040.6 10463.7 1070.6 10449.3 1097.8C10435.7 1124.2 10413.3 1145 10382.1 1160.2C10351.7 1175.4 10310.5 1183 10258.5 1183C10224.1 1183 10189.7 1179.4 10155.3 1172.2C10121.7 1165 10086.9 1153.4 10050.9 1137.4L10077.3 1055.8C10111.7 1069.4 10142.9 1079.4 10170.9 1085.8C10198.9 1092.2 10227.3 1095.4 10256.1 1095.4Z" fill="white"/>
<circle cx="1001.5" cy="1100.5" r="356.5" fill="#D6F68A"/>
<circle cx="460.5" cy="559.5" r="184.5" fill="#D6F68A"/>
<circle cx="253.5" cy="1203.5" r="253.5" fill="#D6F68A"/>
</svg>
