<svg width="12568" height="2289" viewBox="0 0 12568 2289" fill="none" xmlns="http://www.w3.org/2000/svg">
<rect width="2289" height="2289" fill="#1B1B20"/>
<circle cx="1501.5" cy="1234.5" r="356.5" fill="#D6F68A"/>
<circle cx="960.5" cy="675.5" r="184.5" fill="#D6F68A"/>
<circle cx="753.5" cy="1319.5" r="253.5" fill="#D6F68A"/>
<path d="M3278.8 1075V1253.8C3278.8 1355.4 3253.2 1436.2 3202 1496.2C3151.6 1555.4 3078.8 1585 2983.6 1585C2888.4 1585 2815.2 1555.4 2764 1496.2C2713.6 1436.2 2688.4 1355.4 2688.4 1253.8V1075C2688.4 974.2 2713.6 894.2 2764 835C2815.2 775 2888.4 745 2983.6 745C3078.8 745 3151.6 775 3202 835C3253.2 894.2 3278.8 974.2 3278.8 1075ZM3170.8 1075C3170.8 1000.6 3154.8 943.4 3122.8 903.4C3091.6 862.6 3045.2 842.2 2983.6 842.2C2922.8 842.2 2876.4 862.6 2844.4 903.4C2812.4 943.4 2796.4 1000.6 2796.4 1075V1253.8C2796.4 1329 2812.4 1387 2844.4 1427.8C2876.4 1468.6 2922.8 1489 2983.6 1489C3045.2 1489 3091.6 1468.6 3122.8 1427.8C3154.8 1387 3170.8 1329 3170.8 1253.8V1075ZM3716.15 1585C3671.35 1585 3624.95 1575.8 3576.95 1557.4V1828.6H3478.55V979H3572.15V1063C3608.95 1027.8 3642.55 1003 3672.95 988.6C3703.35 974.2 3734.55 967 3766.55 967C3829.75 967 3878.15 991 3911.75 1039C3946.15 1087 3963.35 1154.6 3963.35 1241.8V1311.4C3963.35 1394.6 3942.15 1461 3899.75 1510.6C3858.15 1560.2 3796.95 1585 3716.15 1585ZM3742.55 1059.4C3719.35 1059.4 3695.35 1065.4 3670.55 1077.4C3645.75 1089.4 3614.55 1113.8 3576.95 1150.6V1467.4C3600.15 1477.8 3622.55 1485.4 3644.15 1490.2C3665.75 1494.2 3686.95 1496.2 3707.75 1496.2C3762.15 1496.2 3801.35 1479.8 3825.35 1447C3849.35 1413.4 3861.35 1368.2 3861.35 1311.4V1241.8C3861.35 1179.4 3851.35 1133.4 3831.35 1103.8C3812.15 1074.2 3782.55 1059.4 3742.55 1059.4ZM4576.15 1538.2C4540.15 1555.8 4504.15 1567.8 4468.15 1574.2C4432.15 1581.4 4398.95 1585 4368.55 1585C4282.95 1585 4218.95 1560.6 4176.55 1511.8C4134.95 1463 4114.15 1396.2 4114.15 1311.4V1239.4C4114.15 1157 4134.95 1091 4176.55 1041.4C4218.95 991.8 4278.55 967 4355.35 967C4396.15 967 4433.35 975.4 4466.95 992.2C4501.35 1008.2 4528.55 1033 4548.55 1066.6C4569.35 1099.4 4579.75 1141.8 4579.75 1193.8C4579.75 1227.4 4574.95 1265.8 4565.35 1309H4211.35V1311.4C4211.35 1372.2 4223.75 1418.2 4248.55 1449.4C4274.15 1480.6 4314.95 1496.2 4370.95 1496.2C4396.55 1496.2 4424.55 1493 4454.95 1486.6C4486.15 1480.2 4516.55 1470.2 4546.15 1456.6L4576.15 1538.2ZM4355.35 1053.4C4308.95 1053.4 4273.75 1068.6 4249.75 1099C4226.55 1128.6 4213.75 1170.6 4211.35 1225H4480.15C4482.55 1210.6 4483.75 1197 4483.75 1184.2C4483.75 1139.4 4470.95 1106.6 4445.35 1085.8C4420.55 1064.2 4390.55 1053.4 4355.35 1053.4ZM5062.04 1065.4C5026.04 1065.4 4990.84 1071.8 4956.44 1084.6C4922.84 1097.4 4886.84 1121.8 4848.44 1157.8V1573H4750.04V979H4843.64V1075C4884.44 1035 4921.64 1007 4955.24 991C4989.64 975 5025.24 967 5062.04 967V1065.4ZM5661.06 1239.4V1311.4C5661.06 1396.2 5639.06 1463 5595.06 1511.8C5551.86 1560.6 5489.86 1585 5409.06 1585C5329.06 1585 5267.06 1560.6 5223.06 1511.8C5179.06 1463 5157.06 1396.2 5157.06 1311.4V1239.4C5157.06 1156.2 5178.66 1090.2 5221.86 1041.4C5265.86 991.8 5328.26 967 5409.06 967C5489.86 967 5551.86 991.8 5595.06 1041.4C5639.06 1090.2 5661.06 1156.2 5661.06 1239.4ZM5559.06 1239.4C5559.06 1182.6 5546.26 1138.2 5520.66 1106.2C5495.06 1073.4 5457.86 1057 5409.06 1057C5361.06 1057 5323.86 1073.4 5297.46 1106.2C5271.86 1138.2 5259.06 1182.6 5259.06 1239.4V1311.4C5259.06 1370.6 5271.86 1416.2 5297.46 1448.2C5323.86 1480.2 5361.06 1496.2 5409.06 1496.2C5457.86 1496.2 5495.06 1480.2 5520.66 1448.2C5546.26 1416.2 5559.06 1370.6 5559.06 1311.4V1239.4ZM6125.48 1059.4C6103.08 1059.4 6076.68 1065 6046.28 1076.2C6016.68 1087.4 5980.68 1110.2 5938.28 1144.6V1573H5839.88V979H5933.48V1061.8C5975.88 1025.8 6014.28 1001 6048.68 987.4C6083.88 973.8 6117.48 967 6149.48 967C6204.68 967 6246.68 984.6 6275.48 1019.8C6305.08 1054.2 6319.88 1103.4 6319.88 1167.4V1573H6221.48V1181.8C6221.48 1100.2 6189.48 1059.4 6125.48 1059.4ZM6975.16 1491.4C7025.56 1491.4 7064.36 1480.6 7091.56 1459C7118.76 1436.6 7132.36 1404.2 7132.36 1361.8C7132.36 1326.6 7122.76 1297 7103.56 1273C7085.16 1249 7054.76 1230.6 7012.36 1217.8L6915.16 1189C6854.36 1170.6 6809.56 1143 6780.76 1106.2C6751.96 1068.6 6737.56 1022.6 6737.56 968.2C6737.56 926.6 6745.56 889 6761.56 855.4C6778.36 821.8 6804.76 795 6840.76 775C6877.56 755 6925.56 745 6984.76 745C7020.76 745 7057.96 749.4 7096.36 758.2C7134.76 766.2 7173.56 779.4 7212.76 797.8L7179.16 887.8C7140.76 871 7105.96 859 7074.76 851.8C7044.36 843.8 7015.16 839.8 6987.16 839.8C6941.56 839.8 6905.96 849.4 6880.36 868.6C6855.56 887 6843.16 917.8 6843.16 961C6843.16 992.2 6851.56 1018.6 6868.36 1040.2C6885.16 1061 6915.16 1078.2 6958.36 1091.8L7055.56 1120.6C7177.16 1156.6 7237.96 1234.2 7237.96 1353.4C7237.96 1422.2 7217.16 1478.2 7175.56 1521.4C7133.96 1563.8 7067.16 1585 6975.16 1585C6937.56 1585 6897.56 1580.6 6855.16 1571.8C6813.56 1562.2 6770.36 1547.4 6725.56 1527.4L6757.96 1438.6C6800.36 1457.8 6838.36 1471.4 6871.96 1479.4C6906.36 1487.4 6940.76 1491.4 6975.16 1491.4ZM7864.19 1239.4V1311.4C7864.19 1396.2 7842.19 1463 7798.19 1511.8C7754.99 1560.6 7692.99 1585 7612.19 1585C7532.19 1585 7470.19 1560.6 7426.19 1511.8C7382.19 1463 7360.19 1396.2 7360.19 1311.4V1239.4C7360.19 1156.2 7381.79 1090.2 7424.99 1041.4C7468.99 991.8 7531.39 967 7612.19 967C7692.99 967 7754.99 991.8 7798.19 1041.4C7842.19 1090.2 7864.19 1156.2 7864.19 1239.4ZM7762.19 1239.4C7762.19 1182.6 7749.39 1138.2 7723.79 1106.2C7698.19 1073.4 7660.99 1057 7612.19 1057C7564.19 1057 7526.99 1073.4 7500.59 1106.2C7474.99 1138.2 7462.19 1182.6 7462.19 1239.4V1311.4C7462.19 1370.6 7474.99 1416.2 7500.59 1448.2C7526.99 1480.2 7564.19 1496.2 7612.19 1496.2C7660.99 1496.2 7698.19 1480.2 7723.79 1448.2C7749.39 1416.2 7762.19 1370.6 7762.19 1311.4V1239.4ZM8041.81 1429V685H8140.21V1424.2C8140.21 1445.8 8143.41 1462.2 8149.81 1473.4C8157.01 1483.8 8171.01 1489 8191.81 1489H8211.01V1579H8183.41C8130.61 1579 8093.81 1565 8073.01 1537C8052.21 1509 8041.81 1473 8041.81 1429ZM8725.41 1573V1489C8683.81 1525 8646.61 1550.2 8613.81 1564.6C8581.01 1578.2 8548.21 1585 8515.41 1585C8462.61 1585 8422.21 1567.8 8394.21 1533.4C8366.21 1498.2 8352.21 1449 8352.21 1385.8V979H8450.61V1371.4C8450.61 1413 8457.81 1443.8 8472.21 1463.8C8487.41 1483 8509.81 1492.6 8539.41 1492.6C8561.81 1492.6 8587.01 1487 8615.01 1475.8C8643.01 1464.6 8677.81 1442.2 8719.41 1408.6V979H8817.81V1573H8725.41ZM9356.13 1551.4C9311.33 1573.8 9263.73 1585 9213.33 1585C9170.13 1585 9136.13 1576.2 9111.33 1558.6C9087.33 1541 9070.13 1517.4 9059.73 1487.8C9050.13 1458.2 9045.33 1425.4 9045.33 1389.4V1065.4H8942.13V979H9045.33V813.4H9143.73V979H9338.13V1065.4H9143.73V1385.8C9143.73 1427.4 9150.53 1456.2 9164.13 1472.2C9178.53 1487.4 9200.53 1495 9230.13 1495C9244.53 1495 9259.33 1493.4 9274.53 1490.2C9290.53 1486.2 9307.73 1479.8 9326.13 1471L9356.13 1551.4ZM9589.98 833.8H9479.58V723.4H9589.98V833.8ZM9583.98 1573H9485.58V979H9583.98V1573ZM10266.5 1239.4V1311.4C10266.5 1396.2 10244.5 1463 10200.5 1511.8C10157.3 1560.6 10095.3 1585 10014.5 1585C9934.53 1585 9872.53 1560.6 9828.53 1511.8C9784.53 1463 9762.53 1396.2 9762.53 1311.4V1239.4C9762.53 1156.2 9784.13 1090.2 9827.33 1041.4C9871.33 991.8 9933.73 967 10014.5 967C10095.3 967 10157.3 991.8 10200.5 1041.4C10244.5 1090.2 10266.5 1156.2 10266.5 1239.4ZM10164.5 1239.4C10164.5 1182.6 10151.7 1138.2 10126.1 1106.2C10100.5 1073.4 10063.3 1057 10014.5 1057C9966.53 1057 9929.33 1073.4 9902.93 1106.2C9877.33 1138.2 9864.53 1182.6 9864.53 1239.4V1311.4C9864.53 1370.6 9877.33 1416.2 9902.93 1448.2C9929.33 1480.2 9966.53 1496.2 10014.5 1496.2C10063.3 1496.2 10100.5 1480.2 10126.1 1448.2C10151.7 1416.2 10164.5 1370.6 10164.5 1311.4V1239.4ZM10731 1059.4C10708.6 1059.4 10682.2 1065 10651.8 1076.2C10622.2 1087.4 10586.2 1110.2 10543.8 1144.6V1573H10445.4V979H10539V1061.8C10581.4 1025.8 10619.8 1001 10654.2 987.4C10689.4 973.8 10723 967 10755 967C10810.2 967 10852.2 984.6 10881 1019.8C10910.6 1054.2 10925.4 1103.4 10925.4 1167.4V1573H10827V1181.8C10827 1100.2 10795 1059.4 10731 1059.4ZM11276.1 1497.4C11356.1 1497.4 11396.1 1470.2 11396.1 1415.8C11396.1 1392.6 11388.9 1374.2 11374.5 1360.6C11360.1 1347 11333.7 1335.4 11295.3 1325.8L11229.3 1309C11180.5 1297 11144.1 1276.2 11120.1 1246.6C11096.1 1216.2 11084.1 1180.2 11084.1 1138.6C11084.1 1108.2 11090.9 1080.2 11104.5 1054.6C11118.1 1028.2 11139.7 1007 11169.3 991C11198.9 975 11237.3 967 11284.5 967C11314.9 967 11345.7 970.6 11376.9 977.8C11408.9 984.2 11441.3 995.4 11474.1 1011.4L11442.9 1094.2C11384.5 1067.8 11331.7 1054.6 11284.5 1054.6C11214.9 1054.6 11180.1 1080.6 11180.1 1132.6C11180.1 1152.6 11186.5 1169.8 11199.3 1184.2C11212.1 1198.6 11236.1 1210.2 11271.3 1219L11337.3 1235.8C11390.1 1248.6 11428.9 1269.4 11453.7 1298.2C11478.5 1327 11490.9 1364.2 11490.9 1409.8C11490.9 1442.6 11483.7 1472.6 11469.3 1499.8C11455.7 1526.2 11433.3 1547 11402.1 1562.2C11371.7 1577.4 11330.5 1585 11278.5 1585C11244.1 1585 11209.7 1581.4 11175.3 1574.2C11141.7 1567 11106.9 1555.4 11070.9 1539.4L11097.3 1457.8C11131.7 1471.4 11162.9 1481.4 11190.9 1487.8C11218.9 1494.2 11247.3 1497.4 11276.1 1497.4Z" fill="white"/>
</svg>
