<svg width="12068" height="1427" viewBox="0 0 12068 1427" fill="none" xmlns="http://www.w3.org/2000/svg">
<circle cx="1001.5" cy="832.5" r="356.5" fill="#5A57EB"/>
<circle cx="460.5" cy="273.5" r="184.5" fill="#5A57EB"/>
<circle cx="253.5" cy="917.5" r="253.5" fill="#5A57EB"/>
<path d="M2778.8 673V851.8C2778.8 953.4 2753.2 1034.2 2702 1094.2C2651.6 1153.4 2578.8 1183 2483.6 1183C2388.4 1183 2315.2 1153.4 2264 1094.2C2213.6 1034.2 2188.4 953.4 2188.4 851.8V673C2188.4 572.2 2213.6 492.2 2264 433C2315.2 373 2388.4 343 2483.6 343C2578.8 343 2651.6 373 2702 433C2753.2 492.2 2778.8 572.2 2778.8 673ZM2670.8 673C2670.8 598.6 2654.8 541.4 2622.8 501.4C2591.6 460.6 2545.2 440.2 2483.6 440.2C2422.8 440.2 2376.4 460.6 2344.4 501.4C2312.4 541.4 2296.4 598.6 2296.4 673V851.8C2296.4 927 2312.4 985 2344.4 1025.8C2376.4 1066.6 2422.8 1087 2483.6 1087C2545.2 1087 2591.6 1066.6 2622.8 1025.8C2654.8 985 2670.8 927 2670.8 851.8V673ZM3216.15 1183C3171.35 1183 3124.95 1173.8 3076.95 1155.4V1426.6H2978.55V577H3072.15V661C3108.95 625.8 3142.55 601 3172.95 586.6C3203.35 572.2 3234.55 565 3266.55 565C3329.75 565 3378.15 589 3411.75 637C3446.15 685 3463.35 752.6 3463.35 839.8V909.4C3463.35 992.6 3442.15 1059 3399.75 1108.6C3358.15 1158.2 3296.95 1183 3216.15 1183ZM3242.55 657.4C3219.35 657.4 3195.35 663.4 3170.55 675.4C3145.75 687.4 3114.55 711.8 3076.95 748.6V1065.4C3100.15 1075.8 3122.55 1083.4 3144.15 1088.2C3165.75 1092.2 3186.95 1094.2 3207.75 1094.2C3262.15 1094.2 3301.35 1077.8 3325.35 1045C3349.35 1011.4 3361.35 966.2 3361.35 909.4V839.8C3361.35 777.4 3351.35 731.4 3331.35 701.8C3312.15 672.2 3282.55 657.4 3242.55 657.4ZM4076.15 1136.2C4040.15 1153.8 4004.15 1165.8 3968.15 1172.2C3932.15 1179.4 3898.95 1183 3868.55 1183C3782.95 1183 3718.95 1158.6 3676.55 1109.8C3634.95 1061 3614.15 994.2 3614.15 909.4V837.4C3614.15 755 3634.95 689 3676.55 639.4C3718.95 589.8 3778.55 565 3855.35 565C3896.15 565 3933.35 573.4 3966.95 590.2C4001.35 606.2 4028.55 631 4048.55 664.6C4069.35 697.4 4079.75 739.8 4079.75 791.8C4079.75 825.4 4074.95 863.8 4065.35 907H3711.35V909.4C3711.35 970.2 3723.75 1016.2 3748.55 1047.4C3774.15 1078.6 3814.95 1094.2 3870.95 1094.2C3896.55 1094.2 3924.55 1091 3954.95 1084.6C3986.15 1078.2 4016.55 1068.2 4046.15 1054.6L4076.15 1136.2ZM3855.35 651.4C3808.95 651.4 3773.75 666.6 3749.75 697C3726.55 726.6 3713.75 768.6 3711.35 823H3980.15C3982.55 808.6 3983.75 795 3983.75 782.2C3983.75 737.4 3970.95 704.6 3945.35 683.8C3920.55 662.2 3890.55 651.4 3855.35 651.4ZM4562.04 663.4C4526.04 663.4 4490.84 669.8 4456.44 682.6C4422.84 695.4 4386.84 719.8 4348.44 755.8V1171H4250.04V577H4343.64V673C4384.44 633 4421.64 605 4455.24 589C4489.64 573 4525.24 565 4562.04 565V663.4ZM5161.06 837.4V909.4C5161.06 994.2 5139.06 1061 5095.06 1109.8C5051.86 1158.6 4989.86 1183 4909.06 1183C4829.06 1183 4767.06 1158.6 4723.06 1109.8C4679.06 1061 4657.06 994.2 4657.06 909.4V837.4C4657.06 754.2 4678.66 688.2 4721.86 639.4C4765.86 589.8 4828.26 565 4909.06 565C4989.86 565 5051.86 589.8 5095.06 639.4C5139.06 688.2 5161.06 754.2 5161.06 837.4ZM5059.06 837.4C5059.06 780.6 5046.26 736.2 5020.66 704.2C4995.06 671.4 4957.86 655 4909.06 655C4861.06 655 4823.86 671.4 4797.46 704.2C4771.86 736.2 4759.06 780.6 4759.06 837.4V909.4C4759.06 968.6 4771.86 1014.2 4797.46 1046.2C4823.86 1078.2 4861.06 1094.2 4909.06 1094.2C4957.86 1094.2 4995.06 1078.2 5020.66 1046.2C5046.26 1014.2 5059.06 968.6 5059.06 909.4V837.4ZM5625.48 657.4C5603.08 657.4 5576.68 663 5546.28 674.2C5516.68 685.4 5480.68 708.2 5438.28 742.6V1171H5339.88V577H5433.48V659.8C5475.88 623.8 5514.28 599 5548.68 585.4C5583.88 571.8 5617.48 565 5649.48 565C5704.68 565 5746.68 582.6 5775.48 617.8C5805.08 652.2 5819.88 701.4 5819.88 765.4V1171H5721.48V779.8C5721.48 698.2 5689.48 657.4 5625.48 657.4ZM6475.16 1089.4C6525.56 1089.4 6564.36 1078.6 6591.56 1057C6618.76 1034.6 6632.36 1002.2 6632.36 959.8C6632.36 924.6 6622.76 895 6603.56 871C6585.16 847 6554.76 828.6 6512.36 815.8L6415.16 787C6354.36 768.6 6309.56 741 6280.76 704.2C6251.96 666.6 6237.56 620.6 6237.56 566.2C6237.56 524.6 6245.56 487 6261.56 453.4C6278.36 419.8 6304.76 393 6340.76 373C6377.56 353 6425.56 343 6484.76 343C6520.76 343 6557.96 347.4 6596.36 356.2C6634.76 364.2 6673.56 377.4 6712.76 395.8L6679.16 485.8C6640.76 469 6605.96 457 6574.76 449.8C6544.36 441.8 6515.16 437.8 6487.16 437.8C6441.56 437.8 6405.96 447.4 6380.36 466.6C6355.56 485 6343.16 515.8 6343.16 559C6343.16 590.2 6351.56 616.6 6368.36 638.2C6385.16 659 6415.16 676.2 6458.36 689.8L6555.56 718.6C6677.16 754.6 6737.96 832.2 6737.96 951.4C6737.96 1020.2 6717.16 1076.2 6675.56 1119.4C6633.96 1161.8 6567.16 1183 6475.16 1183C6437.56 1183 6397.56 1178.6 6355.16 1169.8C6313.56 1160.2 6270.36 1145.4 6225.56 1125.4L6257.96 1036.6C6300.36 1055.8 6338.36 1069.4 6371.96 1077.4C6406.36 1085.4 6440.76 1089.4 6475.16 1089.4ZM7364.19 837.4V909.4C7364.19 994.2 7342.19 1061 7298.19 1109.8C7254.99 1158.6 7192.99 1183 7112.19 1183C7032.19 1183 6970.19 1158.6 6926.19 1109.8C6882.19 1061 6860.19 994.2 6860.19 909.4V837.4C6860.19 754.2 6881.79 688.2 6924.99 639.4C6968.99 589.8 7031.39 565 7112.19 565C7192.99 565 7254.99 589.8 7298.19 639.4C7342.19 688.2 7364.19 754.2 7364.19 837.4ZM7262.19 837.4C7262.19 780.6 7249.39 736.2 7223.79 704.2C7198.19 671.4 7160.99 655 7112.19 655C7064.19 655 7026.99 671.4 7000.59 704.2C6974.99 736.2 6962.19 780.6 6962.19 837.4V909.4C6962.19 968.6 6974.99 1014.2 7000.59 1046.2C7026.99 1078.2 7064.19 1094.2 7112.19 1094.2C7160.99 1094.2 7198.19 1078.2 7223.79 1046.2C7249.39 1014.2 7262.19 968.6 7262.19 909.4V837.4ZM7541.81 1027V283H7640.21V1022.2C7640.21 1043.8 7643.41 1060.2 7649.81 1071.4C7657.01 1081.8 7671.01 1087 7691.81 1087H7711.01V1177H7683.41C7630.61 1177 7593.81 1163 7573.01 1135C7552.21 1107 7541.81 1071 7541.81 1027ZM8225.41 1171V1087C8183.81 1123 8146.61 1148.2 8113.81 1162.6C8081.01 1176.2 8048.21 1183 8015.41 1183C7962.61 1183 7922.21 1165.8 7894.21 1131.4C7866.21 1096.2 7852.21 1047 7852.21 983.8V577H7950.61V969.4C7950.61 1011 7957.81 1041.8 7972.21 1061.8C7987.41 1081 8009.81 1090.6 8039.41 1090.6C8061.81 1090.6 8087.01 1085 8115.01 1073.8C8143.01 1062.6 8177.81 1040.2 8219.41 1006.6V577H8317.81V1171H8225.41ZM8856.13 1149.4C8811.33 1171.8 8763.73 1183 8713.33 1183C8670.13 1183 8636.13 1174.2 8611.33 1156.6C8587.33 1139 8570.13 1115.4 8559.73 1085.8C8550.13 1056.2 8545.33 1023.4 8545.33 987.4V663.4H8442.13V577H8545.33V411.4H8643.73V577H8838.13V663.4H8643.73V983.8C8643.73 1025.4 8650.53 1054.2 8664.13 1070.2C8678.53 1085.4 8700.53 1093 8730.13 1093C8744.53 1093 8759.33 1091.4 8774.53 1088.2C8790.53 1084.2 8807.73 1077.8 8826.13 1069L8856.13 1149.4ZM9089.98 431.8H8979.58V321.4H9089.98V431.8ZM9083.98 1171H8985.58V577H9083.98V1171ZM9766.53 837.4V909.4C9766.53 994.2 9744.53 1061 9700.53 1109.8C9657.33 1158.6 9595.33 1183 9514.53 1183C9434.53 1183 9372.53 1158.6 9328.53 1109.8C9284.53 1061 9262.53 994.2 9262.53 909.4V837.4C9262.53 754.2 9284.13 688.2 9327.33 639.4C9371.33 589.8 9433.73 565 9514.53 565C9595.33 565 9657.33 589.8 9700.53 639.4C9744.53 688.2 9766.53 754.2 9766.53 837.4ZM9664.53 837.4C9664.53 780.6 9651.73 736.2 9626.13 704.2C9600.53 671.4 9563.33 655 9514.53 655C9466.53 655 9429.33 671.4 9402.93 704.2C9377.33 736.2 9364.53 780.6 9364.53 837.4V909.4C9364.53 968.6 9377.33 1014.2 9402.93 1046.2C9429.33 1078.2 9466.53 1094.2 9514.53 1094.2C9563.33 1094.2 9600.53 1078.2 9626.13 1046.2C9651.73 1014.2 9664.53 968.6 9664.53 909.4V837.4ZM10231 657.4C10208.6 657.4 10182.2 663 10151.8 674.2C10122.2 685.4 10086.2 708.2 10043.8 742.6V1171H9945.35V577H10039V659.8C10081.4 623.8 10119.8 599 10154.2 585.4C10189.4 571.8 10223 565 10255 565C10310.2 565 10352.2 582.6 10381 617.8C10410.6 652.2 10425.4 701.4 10425.4 765.4V1171H10327V779.8C10327 698.2 10295 657.4 10231 657.4ZM10776.1 1095.4C10856.1 1095.4 10896.1 1068.2 10896.1 1013.8C10896.1 990.6 10888.9 972.2 10874.5 958.6C10860.1 945 10833.7 933.4 10795.3 923.8L10729.3 907C10680.5 895 10644.1 874.2 10620.1 844.6C10596.1 814.2 10584.1 778.2 10584.1 736.6C10584.1 706.2 10590.9 678.2 10604.5 652.6C10618.1 626.2 10639.7 605 10669.3 589C10698.9 573 10737.3 565 10784.5 565C10814.9 565 10845.7 568.6 10876.9 575.8C10908.9 582.2 10941.3 593.4 10974.1 609.4L10942.9 692.2C10884.5 665.8 10831.7 652.6 10784.5 652.6C10714.9 652.6 10680.1 678.6 10680.1 730.6C10680.1 750.6 10686.5 767.8 10699.3 782.2C10712.1 796.6 10736.1 808.2 10771.3 817L10837.3 833.8C10890.1 846.6 10928.9 867.4 10953.7 896.2C10978.5 925 10990.9 962.2 10990.9 1007.8C10990.9 1040.6 10983.7 1070.6 10969.3 1097.8C10955.7 1124.2 10933.3 1145 10902.1 1160.2C10871.7 1175.4 10830.5 1183 10778.5 1183C10744.1 1183 10709.7 1179.4 10675.3 1172.2C10641.7 1165 10606.9 1153.4 10570.9 1137.4L10597.3 1055.8C10631.7 1069.4 10662.9 1079.4 10690.9 1085.8C10718.9 1092.2 10747.3 1095.4 10776.1 1095.4Z" fill="#111111"/>
</svg>
