<svg width="12068" height="1427" viewBox="0 0 12068 1427" fill="none" xmlns="http://www.w3.org/2000/svg">
<circle cx="1001.5" cy="832.5" r="356.5" fill="#5A57EB"/>
<circle cx="460.5" cy="273.5" r="184.5" fill="#5A57EB"/>
<circle cx="253.5" cy="917.5" r="253.5" fill="#5A57EB"/>
<path d="M2786 676.6V848.2C2786 952.2 2760 1034.2 2708 1094.2C2656 1153.4 2580 1183 2480 1183C2379.2 1183 2302.8 1153.4 2250.8 1094.2C2199.6 1034.2 2174 952.2 2174 848.2V676.6C2174 572.6 2199.6 491 2250.8 431.8C2302.8 372.6 2379.2 343 2480 343C2580 343 2656 372.6 2708 431.8C2760 491 2786 572.6 2786 676.6ZM2638.4 676.6C2638.4 611 2625.6 561.8 2600 529C2574.4 495.4 2534.4 478.6 2480 478.6C2425.6 478.6 2385.6 495.4 2360 529C2334.4 561.8 2321.6 611 2321.6 676.6V848.2C2321.6 913.8 2334.4 963.4 2360 997C2385.6 1030.6 2425.6 1047.4 2480 1047.4C2534.4 1047.4 2574.4 1030.6 2600 997C2625.6 963.4 2638.4 913.8 2638.4 848.2V676.6ZM3218.78 1183C3198.78 1183 3178.38 1181 3157.58 1177C3137.58 1173 3117.18 1167.4 3096.38 1160.2V1426.6H2958.38V562.6H3089.18V645.4C3126.78 607.8 3158.78 582.6 3185.18 569.8C3211.58 557 3239.18 550.6 3267.98 550.6C3334.38 550.6 3385.58 575.4 3421.58 625C3457.58 674.6 3475.58 744.2 3475.58 833.8V898.6C3475.58 985.8 3453.58 1055 3409.58 1106.2C3365.58 1157.4 3301.98 1183 3218.78 1183ZM3230.78 679C3212.38 679 3192.78 684.6 3171.98 695.8C3151.98 706.2 3126.78 726.6 3096.38 757V1035.4C3135.58 1051.4 3171.58 1059.4 3204.38 1059.4C3250.78 1059.4 3283.98 1045 3303.98 1016.2C3323.98 987.4 3333.98 948.2 3333.98 898.6V833.8C3333.98 780.2 3324.78 741 3306.38 716.2C3288.78 691.4 3263.58 679 3230.78 679ZM4097.72 1136.2C4056.12 1153 4016.92 1165 3980.12 1172.2C3943.32 1179.4 3908.52 1183 3875.72 1183C3785.32 1183 3716.92 1157.4 3670.52 1106.2C3624.12 1055 3600.92 987 3600.92 902.2V830.2C3600.92 773.4 3611.32 724.2 3632.12 682.6C3652.92 641 3682.52 608.6 3720.92 585.4C3759.32 562.2 3804.52 550.6 3856.52 550.6C3898.92 550.6 3938.52 559.4 3975.32 577C4012.92 593.8 4043.32 620.6 4066.52 657.4C4090.52 693.4 4102.52 739.8 4102.52 796.6C4102.52 813.4 4101.32 831.4 4098.92 850.6C4096.52 869 4092.52 888.6 4086.92 909.4H3734.12C3735.72 959 3748.12 996.2 3771.32 1021C3794.52 1045.8 3831.72 1058.2 3882.92 1058.2C3910.12 1058.2 3938.12 1055 3966.92 1048.6C3996.52 1042.2 4026.92 1032.6 4058.12 1019.8L4097.72 1136.2ZM3856.52 667C3819.72 667 3790.92 679 3770.12 703C3750.12 726.2 3738.52 759.8 3735.32 803.8H3965.72C3966.52 799.8 3966.92 796.2 3966.92 793C3966.92 789 3966.92 785.4 3966.92 782.2C3966.92 743.8 3956.12 715 3934.52 695.8C3912.92 676.6 3886.92 667 3856.52 667ZM4604.7 688.6C4567.1 688.6 4531.1 694.6 4496.7 706.6C4463.1 717.8 4430.7 736.2 4399.5 761.8V1171H4261.5V562.6H4392.3V656.2C4433.1 617.8 4469.5 590.6 4501.5 574.6C4533.5 558.6 4567.9 550.6 4604.7 550.6V688.6ZM5223.57 830.2V902.2C5223.57 987 5200.37 1055 5153.97 1106.2C5107.57 1157.4 5041.97 1183 4957.17 1183C4872.37 1183 4806.77 1157.4 4760.37 1106.2C4713.97 1055 4690.77 987 4690.77 902.2V830.2C4690.77 745.4 4713.57 677.8 4759.17 627.4C4805.57 576.2 4871.57 550.6 4957.17 550.6C5042.77 550.6 5108.37 576.2 5153.97 627.4C5200.37 677.8 5223.57 745.4 5223.57 830.2ZM5081.97 830.2C5081.97 781.4 5071.17 743.4 5049.57 716.2C5027.97 688.2 4997.17 674.2 4957.17 674.2C4917.17 674.2 4886.37 688.2 4864.77 716.2C4843.17 743.4 4832.37 781.4 4832.37 830.2V902.2C4832.37 951 4843.17 989.4 4864.77 1017.4C4886.37 1045.4 4917.17 1059.4 4957.17 1059.4C4997.17 1059.4 5027.97 1045.4 5049.57 1017.4C5071.17 989.4 5081.97 951 5081.97 902.2V830.2ZM5675.9 679C5655.9 679 5633.1 683.8 5607.5 693.4C5581.9 703 5551.5 721.8 5516.3 749.8V1171H5378.3V562.6H5509.1V644.2C5546.7 611.4 5582.3 587.8 5615.9 573.4C5649.5 558.2 5683.5 550.6 5717.9 550.6C5776.3 550.6 5820.7 569.4 5851.1 607C5881.5 643.8 5896.7 695.8 5896.7 763V1171H5758.7V779.8C5758.7 712.6 5731.1 679 5675.9 679ZM6514.92 1049.8C6607.72 1049.8 6654.12 1015.4 6654.12 946.6C6654.12 918.6 6646.92 896.6 6632.52 880.6C6618.92 864.6 6593.32 850.6 6555.72 838.6L6457.32 806.2C6339.72 767.8 6280.92 690.6 6280.92 574.6C6280.92 507.4 6301.72 452.2 6343.32 409C6385.72 365 6451.72 343 6541.32 343C6578.92 343 6616.12 347.4 6652.92 356.2C6689.72 364.2 6728.92 377.4 6770.52 395.8L6726.12 519.4C6687.72 504.2 6654.92 493.4 6627.72 487C6601.32 479.8 6574.12 476.2 6546.12 476.2C6509.32 476.2 6480.12 483 6458.52 496.6C6437.72 509.4 6427.32 533 6427.32 567.4C6427.32 593 6434.52 614.2 6448.92 631C6464.12 647 6488.92 660.6 6523.32 671.8L6621.72 704.2C6680.92 724.2 6725.32 753.4 6754.92 791.8C6785.32 829.4 6800.52 879.4 6800.52 941.8C6800.52 1013.8 6777.72 1072.2 6732.12 1117C6686.52 1161 6614.92 1183 6517.32 1183C6478.92 1183 6438.92 1178.6 6397.32 1169.8C6356.52 1160.2 6311.72 1144.2 6262.92 1121.8L6307.32 998.2C6352.12 1017.4 6390.12 1031 6421.32 1039C6453.32 1046.2 6484.52 1049.8 6514.92 1049.8ZM7438.41 830.2V902.2C7438.41 987 7415.21 1055 7368.81 1106.2C7322.41 1157.4 7256.81 1183 7172.01 1183C7087.21 1183 7021.61 1157.4 6975.21 1106.2C6928.81 1055 6905.61 987 6905.61 902.2V830.2C6905.61 745.4 6928.41 677.8 6974.01 627.4C7020.41 576.2 7086.41 550.6 7172.01 550.6C7257.61 550.6 7323.21 576.2 7368.81 627.4C7415.21 677.8 7438.41 745.4 7438.41 830.2ZM7296.81 830.2C7296.81 781.4 7286.01 743.4 7264.41 716.2C7242.81 688.2 7212.01 674.2 7172.01 674.2C7132.01 674.2 7101.21 688.2 7079.61 716.2C7058.01 743.4 7047.21 781.4 7047.21 830.2V902.2C7047.21 951 7058.01 989.4 7079.61 1017.4C7101.21 1045.4 7132.01 1059.4 7172.01 1059.4C7212.01 1059.4 7242.81 1045.4 7264.41 1017.4C7286.01 989.4 7296.81 951 7296.81 902.2V830.2ZM7589.54 999.4V283H7727.54V999.4C7727.54 1011.4 7730.34 1023 7735.94 1034.2C7742.34 1044.6 7754.34 1049.8 7771.94 1049.8H7791.14V1177H7757.54C7711.94 1177 7677.14 1168.2 7653.14 1150.6C7629.14 1133 7612.34 1110.6 7602.74 1083.4C7593.94 1056.2 7589.54 1028.2 7589.54 999.4ZM8287.18 1171V1090.6C8250.38 1122.6 8215.98 1146.2 8183.98 1161.4C8151.98 1175.8 8119.58 1183 8086.78 1183C8032.38 1183 7990.38 1164.6 7960.78 1127.8C7931.18 1090.2 7916.38 1037.8 7916.38 970.6V562.6H8054.38V953.8C8054.38 1021 8079.18 1054.6 8128.78 1054.6C8148.78 1054.6 8170.38 1049.8 8193.58 1040.2C8217.58 1030.6 8246.38 1012.2 8279.98 985V562.6H8417.98V1171H8287.18ZM8973.99 1150.6C8953.19 1160.2 8929.19 1167.8 8901.99 1173.4C8874.79 1179.8 8847.19 1183 8819.19 1183C8772.79 1183 8735.59 1173.4 8707.59 1154.2C8679.59 1135 8659.19 1108.2 8646.39 1073.8C8634.39 1039.4 8628.39 1000.2 8628.39 956.2V682.6H8529.99V562.6H8628.39V404.2H8766.39V562.6H8955.99V682.6H8766.39V956.2C8766.39 993 8773.19 1018.6 8786.79 1033C8801.19 1046.6 8821.59 1053.4 8847.99 1053.4C8860.79 1053.4 8874.39 1052.2 8888.79 1049.8C8903.99 1046.6 8920.79 1041.4 8939.19 1034.2L8973.99 1150.6ZM9226.54 447.4H9081.34V304.6H9226.54V447.4ZM9222.94 1171H9084.94V562.6H9222.94V1171ZM9911.07 830.2V902.2C9911.07 987 9887.87 1055 9841.47 1106.2C9795.07 1157.4 9729.47 1183 9644.67 1183C9559.87 1183 9494.27 1157.4 9447.87 1106.2C9401.47 1055 9378.27 987 9378.27 902.2V830.2C9378.27 745.4 9401.07 677.8 9446.67 627.4C9493.07 576.2 9559.07 550.6 9644.67 550.6C9730.27 550.6 9795.87 576.2 9841.47 627.4C9887.87 677.8 9911.07 745.4 9911.07 830.2ZM9769.47 830.2C9769.47 781.4 9758.67 743.4 9737.07 716.2C9715.47 688.2 9684.67 674.2 9644.67 674.2C9604.67 674.2 9573.87 688.2 9552.27 716.2C9530.67 743.4 9519.87 781.4 9519.87 830.2V902.2C9519.87 951 9530.67 989.4 9552.27 1017.4C9573.87 1045.4 9604.67 1059.4 9644.67 1059.4C9684.67 1059.4 9715.47 1045.4 9737.07 1017.4C9758.67 989.4 9769.47 951 9769.47 902.2V830.2ZM10363.4 679C10343.4 679 10320.6 683.8 10295 693.4C10269.4 703 10239 721.8 10203.8 749.8V1171H10065.8V562.6H10196.6V644.2C10234.2 611.4 10269.8 587.8 10303.4 573.4C10337 558.2 10371 550.6 10405.4 550.6C10463.8 550.6 10508.2 569.4 10538.6 607C10569 643.8 10584.2 695.8 10584.2 763V1171H10446.2V779.8C10446.2 712.6 10418.6 679 10363.4 679ZM10937 1063C10966.6 1063 10991 1058.2 11010.2 1048.6C11029.4 1038.2 11039 1023 11039 1003C11039 985.4 11032.6 971.8 11019.8 962.2C11007.8 951.8 10985.8 942.6 10953.8 934.6L10885.4 916.6C10832.6 903 10793.4 880.2 10767.8 848.2C10743 816.2 10730.6 778.2 10730.6 734.2C10730.6 682.2 10748.6 638.6 10784.6 603.4C10820.6 568.2 10876.2 550.6 10951.4 550.6C10981.8 550.6 11013.8 554.2 11047.4 561.4C11081 568.6 11116.2 580.2 11153 596.2L11113.4 713.8C11079.8 697.8 11049.4 686.6 11022.2 680.2C10995 673.8 10971 670.6 10950.2 670.6C10893.4 670.6 10865 689.8 10865 728.2C10865 743.4 10869.8 755.4 10879.4 764.2C10889.8 773 10908.6 781 10935.8 788.2L11004.2 806.2C11062.6 821.4 11105 844.6 11131.4 875.8C11158.6 907 11172.2 946.2 11172.2 993.4C11172.2 1049.4 11153 1095 11114.6 1130.2C11077 1165.4 11017.4 1183 10935.8 1183C10866.2 1183 10793 1167 10716.2 1135L10753.4 1021C10791 1036.2 10825 1047 10855.4 1053.4C10885.8 1059.8 10913 1063 10937 1063Z" fill="#111111"/>
</svg>
