<svg width="11476" height="1427" viewBox="0 0 11476 1427" fill="none" xmlns="http://www.w3.org/2000/svg">
<path d="M2186.8 673V851.8C2186.8 953.4 2161.2 1034.2 2110 1094.2C2059.6 1153.4 1986.8 1183 1891.6 1183C1796.4 1183 1723.2 1153.4 1672 1094.2C1621.6 1034.2 1596.4 953.4 1596.4 851.8V673C1596.4 572.2 1621.6 492.2 1672 433C1723.2 373 1796.4 343 1891.6 343C1986.8 343 2059.6 373 2110 433C2161.2 492.2 2186.8 572.2 2186.8 673ZM2078.8 673C2078.8 598.6 2062.8 541.4 2030.8 501.4C1999.6 460.6 1953.2 440.2 1891.6 440.2C1830.8 440.2 1784.4 460.6 1752.4 501.4C1720.4 541.4 1704.4 598.6 1704.4 673V851.8C1704.4 927 1720.4 985 1752.4 1025.8C1784.4 1066.6 1830.8 1087 1891.6 1087C1953.2 1087 1999.6 1066.6 2030.8 1025.8C2062.8 985 2078.8 927 2078.8 851.8V673ZM2624.15 1183C2579.35 1183 2532.95 1173.8 2484.95 1155.4V1426.6H2386.55V577H2480.15V661C2516.95 625.8 2550.55 601 2580.95 586.6C2611.35 572.2 2642.55 565 2674.55 565C2737.75 565 2786.15 589 2819.75 637C2854.15 685 2871.35 752.6 2871.35 839.8V909.4C2871.35 992.6 2850.15 1059 2807.75 1108.6C2766.15 1158.2 2704.95 1183 2624.15 1183ZM2650.55 657.4C2627.35 657.4 2603.35 663.4 2578.55 675.4C2553.75 687.4 2522.55 711.8 2484.95 748.6V1065.4C2508.15 1075.8 2530.55 1083.4 2552.15 1088.2C2573.75 1092.2 2594.95 1094.2 2615.75 1094.2C2670.15 1094.2 2709.35 1077.8 2733.35 1045C2757.35 1011.4 2769.35 966.2 2769.35 909.4V839.8C2769.35 777.4 2759.35 731.4 2739.35 701.8C2720.15 672.2 2690.55 657.4 2650.55 657.4ZM3484.15 1136.2C3448.15 1153.8 3412.15 1165.8 3376.15 1172.2C3340.15 1179.4 3306.95 1183 3276.55 1183C3190.95 1183 3126.95 1158.6 3084.55 1109.8C3042.95 1061 3022.15 994.2 3022.15 909.4V837.4C3022.15 755 3042.95 689 3084.55 639.4C3126.95 589.8 3186.55 565 3263.35 565C3304.15 565 3341.35 573.4 3374.95 590.2C3409.35 606.2 3436.55 631 3456.55 664.6C3477.35 697.4 3487.75 739.8 3487.75 791.8C3487.75 825.4 3482.95 863.8 3473.35 907H3119.35V909.4C3119.35 970.2 3131.75 1016.2 3156.55 1047.4C3182.15 1078.6 3222.95 1094.2 3278.95 1094.2C3304.55 1094.2 3332.55 1091 3362.95 1084.6C3394.15 1078.2 3424.55 1068.2 3454.15 1054.6L3484.15 1136.2ZM3263.35 651.4C3216.95 651.4 3181.75 666.6 3157.75 697C3134.55 726.6 3121.75 768.6 3119.35 823H3388.15C3390.55 808.6 3391.75 795 3391.75 782.2C3391.75 737.4 3378.95 704.6 3353.35 683.8C3328.55 662.2 3298.55 651.4 3263.35 651.4ZM3970.04 663.4C3934.04 663.4 3898.84 669.8 3864.44 682.6C3830.84 695.4 3794.84 719.8 3756.44 755.8V1171H3658.04V577H3751.64V673C3792.44 633 3829.64 605 3863.24 589C3897.64 573 3933.24 565 3970.04 565V663.4ZM4569.06 837.4V909.4C4569.06 994.2 4547.06 1061 4503.06 1109.8C4459.86 1158.6 4397.86 1183 4317.06 1183C4237.06 1183 4175.06 1158.6 4131.06 1109.8C4087.06 1061 4065.06 994.2 4065.06 909.4V837.4C4065.06 754.2 4086.66 688.2 4129.86 639.4C4173.86 589.8 4236.26 565 4317.06 565C4397.86 565 4459.86 589.8 4503.06 639.4C4547.06 688.2 4569.06 754.2 4569.06 837.4ZM4467.06 837.4C4467.06 780.6 4454.26 736.2 4428.66 704.2C4403.06 671.4 4365.86 655 4317.06 655C4269.06 655 4231.86 671.4 4205.46 704.2C4179.86 736.2 4167.06 780.6 4167.06 837.4V909.4C4167.06 968.6 4179.86 1014.2 4205.46 1046.2C4231.86 1078.2 4269.06 1094.2 4317.06 1094.2C4365.86 1094.2 4403.06 1078.2 4428.66 1046.2C4454.26 1014.2 4467.06 968.6 4467.06 909.4V837.4ZM5033.48 657.4C5011.08 657.4 4984.68 663 4954.28 674.2C4924.68 685.4 4888.68 708.2 4846.28 742.6V1171H4747.88V577H4841.48V659.8C4883.88 623.8 4922.28 599 4956.68 585.4C4991.88 571.8 5025.48 565 5057.48 565C5112.68 565 5154.68 582.6 5183.48 617.8C5213.08 652.2 5227.88 701.4 5227.88 765.4V1171H5129.48V779.8C5129.48 698.2 5097.48 657.4 5033.48 657.4ZM5883.16 1089.4C5933.56 1089.4 5972.36 1078.6 5999.56 1057C6026.76 1034.6 6040.36 1002.2 6040.36 959.8C6040.36 924.6 6030.76 895 6011.56 871C5993.16 847 5962.76 828.6 5920.36 815.8L5823.16 787C5762.36 768.6 5717.56 741 5688.76 704.2C5659.96 666.6 5645.56 620.6 5645.56 566.2C5645.56 524.6 5653.56 487 5669.56 453.4C5686.36 419.8 5712.76 393 5748.76 373C5785.56 353 5833.56 343 5892.76 343C5928.76 343 5965.96 347.4 6004.36 356.2C6042.76 364.2 6081.56 377.4 6120.76 395.8L6087.16 485.8C6048.76 469 6013.96 457 5982.76 449.8C5952.36 441.8 5923.16 437.8 5895.16 437.8C5849.56 437.8 5813.96 447.4 5788.36 466.6C5763.56 485 5751.16 515.8 5751.16 559C5751.16 590.2 5759.56 616.6 5776.36 638.2C5793.16 659 5823.16 676.2 5866.36 689.8L5963.56 718.6C6085.16 754.6 6145.96 832.2 6145.96 951.4C6145.96 1020.2 6125.16 1076.2 6083.56 1119.4C6041.96 1161.8 5975.16 1183 5883.16 1183C5845.56 1183 5805.56 1178.6 5763.16 1169.8C5721.56 1160.2 5678.36 1145.4 5633.56 1125.4L5665.96 1036.6C5708.36 1055.8 5746.36 1069.4 5779.96 1077.4C5814.36 1085.4 5848.76 1089.4 5883.16 1089.4ZM6772.19 837.4V909.4C6772.19 994.2 6750.19 1061 6706.19 1109.8C6662.99 1158.6 6600.99 1183 6520.19 1183C6440.19 1183 6378.19 1158.6 6334.19 1109.8C6290.19 1061 6268.19 994.2 6268.19 909.4V837.4C6268.19 754.2 6289.79 688.2 6332.99 639.4C6376.99 589.8 6439.39 565 6520.19 565C6600.99 565 6662.99 589.8 6706.19 639.4C6750.19 688.2 6772.19 754.2 6772.19 837.4ZM6670.19 837.4C6670.19 780.6 6657.39 736.2 6631.79 704.2C6606.19 671.4 6568.99 655 6520.19 655C6472.19 655 6434.99 671.4 6408.59 704.2C6382.99 736.2 6370.19 780.6 6370.19 837.4V909.4C6370.19 968.6 6382.99 1014.2 6408.59 1046.2C6434.99 1078.2 6472.19 1094.2 6520.19 1094.2C6568.99 1094.2 6606.19 1078.2 6631.79 1046.2C6657.39 1014.2 6670.19 968.6 6670.19 909.4V837.4ZM6949.81 1027V283H7048.21V1022.2C7048.21 1043.8 7051.41 1060.2 7057.81 1071.4C7065.01 1081.8 7079.01 1087 7099.81 1087H7119.01V1177H7091.41C7038.61 1177 7001.81 1163 6981.01 1135C6960.21 1107 6949.81 1071 6949.81 1027ZM7633.41 1171V1087C7591.81 1123 7554.61 1148.2 7521.81 1162.6C7489.01 1176.2 7456.21 1183 7423.41 1183C7370.61 1183 7330.21 1165.8 7302.21 1131.4C7274.21 1096.2 7260.21 1047 7260.21 983.8V577H7358.61V969.4C7358.61 1011 7365.81 1041.8 7380.21 1061.8C7395.41 1081 7417.81 1090.6 7447.41 1090.6C7469.81 1090.6 7495.01 1085 7523.01 1073.8C7551.01 1062.6 7585.81 1040.2 7627.41 1006.6V577H7725.81V1171H7633.41ZM8264.13 1149.4C8219.33 1171.8 8171.73 1183 8121.33 1183C8078.13 1183 8044.13 1174.2 8019.33 1156.6C7995.33 1139 7978.13 1115.4 7967.73 1085.8C7958.13 1056.2 7953.33 1023.4 7953.33 987.4V663.4H7850.13V577H7953.33V411.4H8051.73V577H8246.13V663.4H8051.73V983.8C8051.73 1025.4 8058.53 1054.2 8072.13 1070.2C8086.53 1085.4 8108.53 1093 8138.13 1093C8152.53 1093 8167.33 1091.4 8182.53 1088.2C8198.53 1084.2 8215.73 1077.8 8234.13 1069L8264.13 1149.4ZM8497.98 431.8H8387.58V321.4H8497.98V431.8ZM8491.98 1171H8393.58V577H8491.98V1171ZM9174.53 837.4V909.4C9174.53 994.2 9152.53 1061 9108.53 1109.8C9065.33 1158.6 9003.33 1183 8922.53 1183C8842.53 1183 8780.53 1158.6 8736.53 1109.8C8692.53 1061 8670.53 994.2 8670.53 909.4V837.4C8670.53 754.2 8692.13 688.2 8735.33 639.4C8779.33 589.8 8841.73 565 8922.53 565C9003.33 565 9065.33 589.8 9108.53 639.4C9152.53 688.2 9174.53 754.2 9174.53 837.4ZM9072.53 837.4C9072.53 780.6 9059.73 736.2 9034.13 704.2C9008.53 671.4 8971.33 655 8922.53 655C8874.53 655 8837.33 671.4 8810.93 704.2C8785.33 736.2 8772.53 780.6 8772.53 837.4V909.4C8772.53 968.6 8785.33 1014.2 8810.93 1046.2C8837.33 1078.2 8874.53 1094.2 8922.53 1094.2C8971.33 1094.2 9008.53 1078.2 9034.13 1046.2C9059.73 1014.2 9072.53 968.6 9072.53 909.4V837.4ZM9638.95 657.4C9616.55 657.4 9590.15 663 9559.75 674.2C9530.15 685.4 9494.15 708.2 9451.75 742.6V1171H9353.35V577H9446.95V659.8C9489.35 623.8 9527.75 599 9562.15 585.4C9597.35 571.8 9630.95 565 9662.95 565C9718.15 565 9760.15 582.6 9788.95 617.8C9818.55 652.2 9833.35 701.4 9833.35 765.4V1171H9734.95V779.8C9734.95 698.2 9702.95 657.4 9638.95 657.4ZM10184.1 1095.4C10264.1 1095.4 10304.1 1068.2 10304.1 1013.8C10304.1 990.6 10296.9 972.2 10282.5 958.6C10268.1 945 10241.7 933.4 10203.3 923.8L10137.3 907C10088.5 895 10052.1 874.2 10028.1 844.6C10004.1 814.2 9992.1 778.2 9992.1 736.6C9992.1 706.2 9998.9 678.2 10012.5 652.6C10026.1 626.2 10047.7 605 10077.3 589C10106.9 573 10145.3 565 10192.5 565C10222.9 565 10253.7 568.6 10284.9 575.8C10316.9 582.2 10349.3 593.4 10382.1 609.4L10350.9 692.2C10292.5 665.8 10239.7 652.6 10192.5 652.6C10122.9 652.6 10088.1 678.6 10088.1 730.6C10088.1 750.6 10094.5 767.8 10107.3 782.2C10120.1 796.6 10144.1 808.2 10179.3 817L10245.3 833.8C10298.1 846.6 10336.9 867.4 10361.7 896.2C10386.5 925 10398.9 962.2 10398.9 1007.8C10398.9 1040.6 10391.7 1070.6 10377.3 1097.8C10363.7 1124.2 10341.3 1145 10310.1 1160.2C10279.7 1175.4 10238.5 1183 10186.5 1183C10152.1 1183 10117.7 1179.4 10083.3 1172.2C10049.7 1165 10014.9 1153.4 9978.9 1137.4L10005.3 1055.8C10039.7 1069.4 10070.9 1079.4 10098.9 1085.8C10126.9 1092.2 10155.3 1095.4 10184.1 1095.4Z" fill="white"/>
<circle cx="1001.5" cy="833.5" r="356.5" fill="#D6F68A"/>
<circle cx="460.5" cy="273.5" r="184.5" fill="#D6F68A"/>
<circle cx="253.5" cy="917.5" r="253.5" fill="#D6F68A"/>
</svg>
